<?xml version="1.0" encoding="UTF-8" standalone="no"?>
<!-- Created with Inkscape (http://www.inkscape.org/) -->
<svg
   xmlns:svg="http://www.w3.org/2000/svg"
   xmlns="http://www.w3.org/2000/svg"
   version="1.0"
   width="60"
   height="30"
   id="svg1"
   style="fill:#000000;fill-opacity:0.5;stroke:none">
  <defs
     id="defs3" />
  <g
     transform="translate(1.1406852,1.2095292)"
     id="g10036"
     style="fill:#000000;fill-opacity:0.5;stroke:none">
    <path
       d="M 23.71981,1.4599893 A 1.3971966,1.3971966 0 0 0 22.835017,1.8633506 L 18.150822,6.560558 a 1.3971966,1.3971966 0 0 0 -0.01301,1.9647599 l 5.399837,5.4909201 -5.89428,5.712115 a 1.3971966,1.3971966 0 0 0 0.01301,2.003797 l 4.16373,3.994577 a 1.3971966,1.3971966 0 0 0 2.003795,-0.07808 l 4.736242,-5.334779 4.996476,5.360803 a 1.3971966,1.3971966 0 0 0 1.977772,0.07807 l 4.345893,-3.994578 a 1.3971966,1.3971966 0 0 0 0.104093,-1.951748 l -5.26972,-5.985361 5.360801,-5.2827336 a 1.3971966,1.3971966 0 0 0 0.01301,-1.9777716 L 35.742579,2.2146653 a 1.3971966,1.3971966 0 0 0 -2.055841,0.07807 L 29.14567,7.5884783 24.942906,2.0064782 A 1.3971966,1.3971966 0 0 0 23.71981,1.4599893 z"
       id="path19236"
       style="fill:#2d2d2d;fill-opacity:1;fill-rule:evenodd;stroke:none" />
    <path
       d="m 19.138753,7.5444626 6.373902,6.4953104 -6.894571,6.694942 4.165341,3.991789 5.748946,-6.495309 6.052864,6.495309 4.338897,-3.991789 -6.126603,-6.968308 6.30016,-6.2219444 L 34.758788,3.20556 29.07911,9.8267609 23.824762,2.8584511 19.138753,7.5444626 z"
       id="path2506"
       style="fill:#444440;fill-opacity:1;fill-rule:evenodd;stroke:none" />
  </g>
</svg>
