/* XPM */
static char * bottom_right_inactive_xpm[] = {
"10 10 3 1",
" 	c None",
".	c #E0E0E0",
"+	c #B1B1B1",
".........+",
".........+",
".........+",
".........+",
".........+",
".........+",
".........+",
".........+",
".........+",
"++++++++++"};
