/* XPM */
static char * bottom_left_inactive_xpm[] = {
"10 10 3 1",
" 	c None",
".	c #B1B1B1",
"+	c #E0E0E0",
".+++++++++",
".+++++++++",
".+++++++++",
".+++++++++",
".+++++++++",
".+++++++++",
".+++++++++",
".+++++++++",
".+++++++++",
".........."};
