/* XPM */
static char * close_pressed_xpm[] = {
"16 16 80 1",
" 	c None",
".	c #E0E0E0",
"+	c #DFDFDF",
"@	c #DEDEDE",
"#	c #DDDDDD",
"$	c #D9D9D9",
"%	c #BFBFBF",
"&	c #919191",
"*	c #8F8F8F",
"=	c #CDCDCD",
"-	c #969696",
";	c #7B7B7B",
">	c #8B8B8B",
",	c #929292",
"'	c #787878",
")	c #838383",
"!	c #CECECE",
"~	c #7F7F7F",
"{	c #A2A2A2",
"]	c #AFAFAF",
"^	c #B5B5B5",
"/	c #B6B6B6",
"(	c #B0B0B0",
"_	c #A5A5A5",
":	c #868686",
"<	c #DADADA",
"[	c #949494",
"}	c #989898",
"|	c #C0C0C0",
"1	c #CACACA",
"2	c #CCCCCC",
"3	c #CBCBCB",
"4	c #C1C1C1",
"5	c #B1B1B1",
"6	c #999999",
"7	c #8D8D8D",
"8	c #C2C2C2",
"9	c #888888",
"0	c #C7C7C7",
"a	c #9C9C9C",
"b	c #DBDBDB",
"c	c #C9C9C9",
"d	c #B2B2B2",
"e	c #BABABA",
"f	c #A1A1A1",
"g	c #D4D4D4",
"h	c #939393",
"i	c #606060",
"j	c #A8A8A8",
"k	c #979797",
"l	c #959595",
"m	c #C4C4C4",
"n	c #A6A6A6",
"o	c #9A9A9A",
"p	c #9D9D9D",
"q	c #9B9B9B",
"r	c #B8B8B8",
"s	c #D0D0D0",
"t	c #B9B9B9",
"u	c #9F9F9F",
"v	c #B7B7B7",
"w	c #D1D1D1",
"x	c #DCDCDC",
"y	c #A7A7A7",
"z	c #A0A0A0",
"A	c #BEBEBE",
"B	c #9E9E9E",
"C	c #D3D3D3",
"D	c #D2D2D2",
"E	c #E1E1E1",
"F	c #A3A3A3",
"G	c #D8D8D8",
"H	c #E3E3E3",
"I	c #B3B3B3",
"J	c #C6C6C6",
"K	c #E2E2E2",
"L	c #A9A9A9",
"M	c #AAAAAA",
"N	c #E4E4E4",
"O	c #E5E5E5",
"....+@@##@@+....",
"...+$%&***%$+...",
"..@=-;>,,>')=@..",
".+!~*{]^/(_,:!+.",
"+<[}(|12234567<+",
"@8950}a<ba-cd>e@",
"#f_8ghijkilgmno@",
"@65=$@-ii}+$=dp@",
"@qrsb+-ii}+bstu@",
"+avwxli}yikbs/z+",
"+ey=<u}..yu$=_A@",
"+@B|C<#@@#<D|u@+",
".EgFmDGGGGw8FgE.",
"..HCfIJ==J5fCK..",
"..EH.JLMMMJ.K...",
"...+EHNOONH....."};
