/* XPM */
static char * close_prelight_xpm[] = {
"16 16 53 1",
" 	c None",
".	c #E0E0E0",
"+	c #DFDFDF",
"@	c #DEDEDE",
"#	c #DDDDDD",
"$	c #D9D9D9",
"%	c #C7C7C7",
"&	c #BDBDBD",
"*	c #CECECE",
"=	c #BCBCBC",
"-	c #D6D6D6",
";	c #EAEAEA",
">	c #EDEDED",
",	c #CFCFCF",
"'	c #C2C2C2",
")	c #E9E9E9",
"!	c #EEEEEE",
"~	c #EFEFEF",
"{	c #DADADA",
"]	c #BFBFBF",
"^	c #EBEBEB",
"/	c #C8C8C8",
"(	c #D8D8D8",
"_	c #A8A8A8",
":	c #A9A9A9",
"<	c #A5A5A5",
"[	c #BEBEBE",
"}	c #9D9D9D",
"|	c #626262",
"1	c #B1B1B1",
"2	c #9F9F9F",
"3	c #9E9E9E",
"4	c #ECECEC",
"5	c #9C9C9C",
"6	c #E7E7E7",
"7	c #9B9B9B",
"8	c #616161",
"9	c #E8E8E8",
"0	c #E4E4E4",
"a	c #9A9A9A",
"b	c #ACACAC",
"c	c #CACACA",
"d	c #D3D3D3",
"e	c #E5E5E5",
"f	c #A2A2A2",
"g	c #ABABAB",
"h	c #E3E3E3",
"i	c #E1E1E1",
"j	c #D5D5D5",
"k	c #E2E2E2",
"l	c #BBBBBB",
"m	c #D4D4D4",
"n	c #CCCCCC",
"....+@@##@@+....",
"...+$%&&&&%$+...",
"..@*=-;>>;-=*@..",
".+,')!~~~~!)',+.",
"+{]^>~!!!!!!;]{+",
"@/(!~_:~~:<~>(/@",
"#[)>>}|12|3>>)[@",
"@[)4445||3444)[@",
"@&6)))7885)))9&@",
"+[066a87b87660[+",
"+cd0efaeegfeedc@",
"+@[+hhhhhhhh+[@+",
".ij]@khiihk#]ji.",
"..hjl,@..@*lmk..",
"..ih.n[==[n.k...",
"...+ih0ee0h....."};
