/* XPM */
static char * hide_prelight_xpm[] = {
"16 16 41 1",
" 	c None",
".	c #E0E0E0",
"+	c #DFDFDF",
"@	c #DEDEDE",
"#	c #DDDDDD",
"$	c #D9D9D9",
"%	c #C7C7C7",
"&	c #BDBDBD",
"*	c #CECECE",
"=	c #BCBCBC",
"-	c #D6D6D6",
";	c #EAEAEA",
">	c #EDEDED",
",	c #CFCFCF",
"'	c #C2C2C2",
")	c #E9E9E9",
"!	c #EEEEEE",
"~	c #EFEFEF",
"{	c #DADADA",
"]	c #BFBFBF",
"^	c #EBEBEB",
"/	c #C8C8C8",
"(	c #D8D8D8",
"_	c #BEBEBE",
":	c #ECECEC",
"<	c #E7E7E7",
"[	c #E8E8E8",
"}	c #E4E4E4",
"|	c #949494",
"1	c #707070",
"2	c #CACACA",
"3	c #D3D3D3",
"4	c #E5E5E5",
"5	c #AAAAAA",
"6	c #E3E3E3",
"7	c #E1E1E1",
"8	c #D5D5D5",
"9	c #E2E2E2",
"0	c #BBBBBB",
"a	c #D4D4D4",
"b	c #CCCCCC",
"....+@@##@@+....",
"...+$%&&&&%$+...",
"..@*=-;>>;-=*@..",
".+,')!~~~~!)',+.",
"+{]^>~!!!!!!;]{+",
"@/(!~~~~~~~~>(/@",
"#_)>>>>>>>>>>)_@",
"@_)::::::::::)_@",
"@&<))))))))))[&@",
"+_}<<|1111|<<}_+",
"+23}4=5555=4432@",
"+@_+66666666+_@+",
".78]@967769#]87.",
"..680,@..@*0a9..",
"..76.b_==_b.9...",
"...+76}44}6....."};
