/* XPM */
static char * maximize_prelight_xpm[] = {
"16 16 52 1",
" 	c None",
".	c #E0E0E0",
"+	c #DFDFDF",
"@	c #DEDEDE",
"#	c #DDDDDD",
"$	c #D9D9D9",
"%	c #C7C7C7",
"&	c #BDBDBD",
"*	c #CECECE",
"=	c #BCBCBC",
"-	c #D6D6D6",
";	c #EAEAEA",
">	c #EDEDED",
",	c #CFCFCF",
"'	c #C2C2C2",
")	c #E9E9E9",
"!	c #EEEEEE",
"~	c #EFEFEF",
"{	c #DADADA",
"]	c #BFBFBF",
"^	c #EBEBEB",
"/	c #979797",
"(	c #C8C8C8",
"_	c #D8D8D8",
":	c #727272",
"<	c #B0B0B0",
"[	c #BEBEBE",
"}	c #ECECEC",
"|	c #717171",
"1	c #AFAFAF",
"2	c #969696",
"3	c #E7E7E7",
"4	c #ACACAC",
"5	c #707070",
"6	c #8D8D8D",
"7	c #AAAAAA",
"8	c #ABABAB",
"9	c #E8E8E8",
"0	c #E4E4E4",
"a	c #CACACA",
"b	c #D3D3D3",
"c	c #E5E5E5",
"d	c #A9A9A9",
"e	c #E3E3E3",
"f	c #929292",
"g	c #B9B9B9",
"h	c #E1E1E1",
"i	c #D5D5D5",
"j	c #E2E2E2",
"k	c #BBBBBB",
"l	c #D4D4D4",
"m	c #CCCCCC",
"....+@@##@@+....",
"...+$%&&&&%$+...",
"..@*=-;>>;-=*@..",
".+,')!~~~~!)',+.",
"+{]^>~!/'!!!;]{+",
"@(_!~~~:<~~~>_(@",
"#[)>}}>|1>>>>)[@",
"@[)}2||||||2})[@",
"@&3)[445678&)9&@",
"+[03333|833330[+",
"+ab0ccc5dccccba@",
"+@[+eeefgeee+[@+",
".hi]@jehhej#]ih.",
"..eik,@..@*klj..",
"..he.m[==[m.j...",
"...+he0cc0e....."};
