/* XPM */
static char * maximize_toggled_prelight_xpm[] = {
"16 16 81 1",
" 	c None",
".	c #E0E0E0",
"+	c #DFDFDF",
"@	c #DEDEDE",
"#	c #DDDDDD",
"$	c #D9D9D9",
"%	c #BFBFBF",
"&	c #919191",
"*	c #8F8F8F",
"=	c #CDCDCD",
"-	c #969696",
";	c #7B7B7B",
">	c #8B8B8B",
",	c #929292",
"'	c #787878",
")	c #838383",
"!	c #CECECE",
"~	c #7F7F7F",
"{	c #A2A2A2",
"]	c #AFAFAF",
"^	c #B5B5B5",
"/	c #B6B6B6",
"(	c #B0B0B0",
"_	c #A5A5A5",
":	c #868686",
"<	c #DADADA",
"[	c #949494",
"}	c #989898",
"|	c #C0C0C0",
"1	c #CACACA",
"2	c #878787",
"3	c #A9A9A9",
"4	c #CBCBCB",
"5	c #C1C1C1",
"6	c #B1B1B1",
"7	c #999999",
"8	c #8D8D8D",
"9	c #C2C2C2",
"0	c #888888",
"a	c #C7C7C7",
"b	c #D3D3D3",
"c	c #6D6D6D",
"d	c #A4A4A4",
"e	c #D4D4D4",
"f	c #C9C9C9",
"g	c #B2B2B2",
"h	c #BABABA",
"i	c #A1A1A1",
"j	c #6E6E6E",
"k	c #DBDBDB",
"l	c #C4C4C4",
"m	c #A6A6A6",
"n	c #9A9A9A",
"o	c #9D9D9D",
"p	c #9B9B9B",
"q	c #B8B8B8",
"r	c #D0D0D0",
"s	c #B4B4B4",
"t	c #A7A7A7",
"u	c #8A8A8A",
"v	c #B3B3B3",
"w	c #B9B9B9",
"x	c #9F9F9F",
"y	c #9C9C9C",
"z	c #B7B7B7",
"A	c #D1D1D1",
"B	c #DCDCDC",
"C	c #6F6F6F",
"D	c #A0A0A0",
"E	c #BEBEBE",
"F	c #9E9E9E",
"G	c #D2D2D2",
"H	c #E1E1E1",
"I	c #A3A3A3",
"J	c #D8D8D8",
"K	c #E3E3E3",
"L	c #C6C6C6",
"M	c #E2E2E2",
"N	c #AAAAAA",
"O	c #E4E4E4",
"P	c #E5E5E5",
"....+@@##@@+....",
"...+$%&***%$+...",
"..@=-;>,,>')=@..",
".+!~*{]^/(_,:!+.",
"+<[}(|12345678<+",
"@906ab$cd$efg>h@",
"#i_9b$#j_@kelmn@",
"@76=8jjjjjj8=go@",
"@pqrsmtju_dvrwx@",
"+yzAB+.Ct.+kr/D+",
"+ht=<+.Cm.+$=_E@",
"+@F|b<#*/#<G|x@+",
".HeIlGJJJJA9IeH.",
"..KbivL==L6ibM..",
"..HK.L3NNNL.M...",
"...+HKOPPOK....."};
