/* XPM */
static char * right_active_xpm[] = {
"5 1 5 1",
" 	c None",
".	c #E0E0E0",
"+	c #E1E1E1",
"@	c #E2E2E2",
"#	c #B1B1B1",
"..+@#"};
