/* XPM */
static char * shade_prelight_xpm[] = {
"16 16 41 1",
" 	c None",
".	c #E0E0E0",
"+	c #DFDFDF",
"@	c #DEDEDE",
"#	c #DDDDDD",
"$	c #D9D9D9",
"%	c #C7C7C7",
"&	c #BDBDBD",
"*	c #CECECE",
"=	c #BCBCBC",
"-	c #D6D6D6",
";	c #EAEAEA",
">	c #EDEDED",
",	c #CFCFCF",
"'	c #C2C2C2",
")	c #E9E9E9",
"!	c #EEEEEE",
"~	c #EFEFEF",
"{	c #DADADA",
"]	c #BFBFBF",
"^	c #EBEBEB",
"/	c #C8C8C8",
"(	c #D8D8D8",
"_	c #979797",
":	c #727272",
"<	c #BEBEBE",
"[	c #AFAFAF",
"}	c #ECECEC",
"|	c #E7E7E7",
"1	c #E8E8E8",
"2	c #E4E4E4",
"3	c #CACACA",
"4	c #D3D3D3",
"5	c #E5E5E5",
"6	c #E3E3E3",
"7	c #E1E1E1",
"8	c #D5D5D5",
"9	c #E2E2E2",
"0	c #BBBBBB",
"a	c #D4D4D4",
"b	c #CCCCCC",
"....+@@##@@+....",
"...+$%&&&&%$+...",
"..@*=-;>>;-=*@..",
".+,')!~~~~!)',+.",
"+{]^>~!!!!!!;]{+",
"@/(!~_::::_~>(/@",
"#<)>>'[[[['>>)<@",
"@<)}}}}}}}}}})<@",
"@&|))))))))))1&@",
"+<2||||||||||2<+",
"+34255555555543@",
"+@<+66666666+<@+",
".78]@967769#]87.",
"..680,@..@*0a9..",
"..76.b<==<b.9...",
"...+7625526....."};
