/* XPM */
static char * shade_toggled_pressed_xpm[] = {
"16 16 79 1",
" 	c None",
".	c #E0E0E0",
"+	c #DFDFDF",
"@	c #DEDEDE",
"#	c #DDDDDD",
"$	c #D9D9D9",
"%	c #BFBFBF",
"&	c #919191",
"*	c #8F8F8F",
"=	c #CDCDCD",
"-	c #969696",
";	c #7B7B7B",
">	c #8B8B8B",
",	c #929292",
"'	c #787878",
")	c #838383",
"!	c #CECECE",
"~	c #7F7F7F",
"{	c #A2A2A2",
"]	c #AFAFAF",
"^	c #B5B5B5",
"/	c #B6B6B6",
"(	c #B0B0B0",
"_	c #A5A5A5",
":	c #868686",
"<	c #DADADA",
"[	c #949494",
"}	c #989898",
"|	c #C0C0C0",
"1	c #CACACA",
"2	c #CCCCCC",
"3	c #CBCBCB",
"4	c #C1C1C1",
"5	c #B1B1B1",
"6	c #999999",
"7	c #8D8D8D",
"8	c #C2C2C2",
"9	c #888888",
"0	c #C7C7C7",
"a	c #8A8A8A",
"b	c #6C6C6C",
"c	c #6D6D6D",
"d	c #C9C9C9",
"e	c #B2B2B2",
"f	c #BABABA",
"g	c #A1A1A1",
"h	c #D4D4D4",
"i	c #B4B4B4",
"j	c #C4C4C4",
"k	c #A6A6A6",
"l	c #9A9A9A",
"m	c #9D9D9D",
"n	c #9B9B9B",
"o	c #B8B8B8",
"p	c #D0D0D0",
"q	c #DBDBDB",
"r	c #B9B9B9",
"s	c #9F9F9F",
"t	c #9C9C9C",
"u	c #B7B7B7",
"v	c #D1D1D1",
"w	c #DCDCDC",
"x	c #A0A0A0",
"y	c #A7A7A7",
"z	c #BEBEBE",
"A	c #9E9E9E",
"B	c #D3D3D3",
"C	c #D2D2D2",
"D	c #E1E1E1",
"E	c #A3A3A3",
"F	c #D8D8D8",
"G	c #E3E3E3",
"H	c #B3B3B3",
"I	c #C6C6C6",
"J	c #E2E2E2",
"K	c #A9A9A9",
"L	c #AAAAAA",
"M	c #E4E4E4",
"N	c #E5E5E5",
"....+@@##@@+....",
"...+$%&***%$+...",
"..@=-;>,,>')=@..",
".+!~*{]^/(_,:!+.",
"+<[}(|12234567<+",
"@8950abccbade>f@",
"#g_8hi____ihjkl@",
"@65=$@....+$=em@",
"@nopq+....+qprs@",
"+tuvw+....+qp/x+",
"+fy=<+....+$=_z@",
"+@A|B<#@@#<C|s@+",
".DhEjCFFFFv8EhD.",
"..GBgHI==I5gBJ..",
"..DG.IKLLLI.J...",
"...+DGMNNMG....."};
