/* XPM */
static char * close_active_xpm[] = {
"16 16 38 1",
" 	c None",
".	c #E0E0E0",
"+	c #DFDFDF",
"@	c #DEDEDE",
"#	c #DDDDDD",
"$	c #D9D9D9",
"%	c #C7C7C7",
"&	c #BDBDBD",
"*	c #CECECE",
"=	c #BCBCBC",
"-	c #D6D6D6",
";	c #EAEAEA",
">	c #EDEDED",
",	c #CFCFCF",
"'	c #C2C2C2",
")	c #E9E9E9",
"!	c #EEEEEE",
"~	c #EFEFEF",
"{	c #DADADA",
"]	c #BFBFBF",
"^	c #EBEBEB",
"/	c #C8C8C8",
"(	c #D8D8D8",
"_	c #BEBEBE",
":	c #ECECEC",
"<	c #E7E7E7",
"[	c #E8E8E8",
"}	c #E4E4E4",
"|	c #CACACA",
"1	c #D3D3D3",
"2	c #E5E5E5",
"3	c #E3E3E3",
"4	c #E1E1E1",
"5	c #D5D5D5",
"6	c #E2E2E2",
"7	c #BBBBBB",
"8	c #D4D4D4",
"9	c #CCCCCC",
"....+@@##@@+....",
"...+$%&&&&%$+...",
"..@*=-;>>;-=*@..",
".+,')!~~~~!)',+.",
"+{]^>~!!!!!!;]{+",
"@/(!~~~~~~~~>(/@",
"#_)>>>>>>>>>>)_@",
"@_)::::::::::)_@",
"@&<))))))))))[&@",
"+_}<<<<<<<<<<}_+",
"+|1}2222222221|@",
"+@_+33333333+_@+",
".45]@634436#]54.",
"..357,@..@*786..",
"..43.9_==_9.6...",
"...+43}22}3....."};
