/* XPM */
static char * stick_prelight_xpm[] = {
"16 16 42 1",
" 	c None",
".	c #E0E0E0",
"+	c #DFDFDF",
"@	c #DEDEDE",
"#	c #DDDDDD",
"$	c #D9D9D9",
"%	c #C7C7C7",
"&	c #BDBDBD",
"*	c #CECECE",
"=	c #BCBCBC",
"-	c #D6D6D6",
";	c #EAEAEA",
">	c #EDEDED",
",	c #CFCFCF",
"'	c #C2C2C2",
")	c #E9E9E9",
"!	c #EEEEEE",
"~	c #EFEFEF",
"{	c #DADADA",
"]	c #BFBFBF",
"^	c #EBEBEB",
"/	c #C8C8C8",
"(	c #D8D8D8",
"_	c #BEBEBE",
":	c #888888",
"<	c #ECECEC",
"[	c #7A7A7A",
"}	c #E7E7E7",
"|	c #868686",
"1	c #797979",
"2	c #E8E8E8",
"3	c #E4E4E4",
"4	c #CACACA",
"5	c #D3D3D3",
"6	c #E5E5E5",
"7	c #E3E3E3",
"8	c #E1E1E1",
"9	c #D5D5D5",
"0	c #E2E2E2",
"a	c #BBBBBB",
"b	c #D4D4D4",
"c	c #CCCCCC",
"....+@@##@@+....",
"...+$%&&&&%$+...",
"..@*=-;>>;-=*@..",
".+,')!~~~~!)',+.",
"+{]^>~!!!!!!;]{+",
"@/(!~~~~~~~~>(/@",
"#_)>>>'::'>>>)_@",
"@_)<<<:[[:<<<)_@",
"@&})))|11|)))2&@",
"+_3}}}&||&}}}3_+",
"+45366666666654@",
"+@_+77777777+_@+",
".89]@078870#]98.",
"..79a,@..@*ab0..",
"..87.c_==_c.0...",
"...+8736637....."};
