/* XPM */
static char * stick_toggled_inactive_xpm[] = {
"16 16 75 1",
" 	c None",
".	c #E0E0E0",
"+	c #DFDFDF",
"@	c #DEDEDE",
"#	c #DDDDDD",
"$	c #D9D9D9",
"%	c #BFBFBF",
"&	c #919191",
"*	c #8F8F8F",
"=	c #CDCDCD",
"-	c #969696",
";	c #7B7B7B",
">	c #8B8B8B",
",	c #929292",
"'	c #787878",
")	c #838383",
"!	c #CECECE",
"~	c #7F7F7F",
"{	c #A2A2A2",
"]	c #AFAFAF",
"^	c #B5B5B5",
"/	c #B6B6B6",
"(	c #B0B0B0",
"_	c #A5A5A5",
":	c #868686",
"<	c #DADADA",
"[	c #949494",
"}	c #989898",
"|	c #C0C0C0",
"1	c #CACACA",
"2	c #CCCCCC",
"3	c #CBCBCB",
"4	c #C1C1C1",
"5	c #B1B1B1",
"6	c #999999",
"7	c #8D8D8D",
"8	c #C2C2C2",
"9	c #888888",
"0	c #C7C7C7",
"a	c #D3D3D3",
"b	c #DBDBDB",
"c	c #D4D4D4",
"d	c #C9C9C9",
"e	c #B2B2B2",
"f	c #BABABA",
"g	c #A1A1A1",
"h	c #C4C4C4",
"i	c #A6A6A6",
"j	c #9A9A9A",
"k	c #9D9D9D",
"l	c #9B9B9B",
"m	c #B8B8B8",
"n	c #D0D0D0",
"o	c #B9B9B9",
"p	c #9F9F9F",
"q	c #9C9C9C",
"r	c #B7B7B7",
"s	c #D1D1D1",
"t	c #DCDCDC",
"u	c #A0A0A0",
"v	c #A7A7A7",
"w	c #BEBEBE",
"x	c #9E9E9E",
"y	c #D2D2D2",
"z	c #E1E1E1",
"A	c #A3A3A3",
"B	c #D8D8D8",
"C	c #E3E3E3",
"D	c #B3B3B3",
"E	c #C6C6C6",
"F	c #E2E2E2",
"G	c #A9A9A9",
"H	c #AAAAAA",
"I	c #E4E4E4",
"J	c #E5E5E5",
"....+@@##@@+....",
"...+$%&***%$+...",
"..@=-;>,,>')=@..",
".+!~*{]^/(_,:!+.",
"+<[}(|12234567<+",
"@8950a$<b$cde>f@",
"#g_8c<#@@@bchij@",
"@65=$@....+$=ek@",
"@lmnb+....+bnop@",
"+qrst......bn/u+",
"+fv=<......$=_w@",
"+@x|a<#@@#<y|p@+",
".zcAhyBBBBs8Acz.",
"..CagDE==E5gaF..",
"..zC.EGHHHE.F...",
"...+zCIJJIC....."};
