/* XPM */
static char * title_5_active_xpm[] = {
"1 22 5 1",
" 	c None",
".	c #B4B4B4",
"+	c #E4E4E4",
"@	c #E2E2E2",
"#	c #E0E0E0",
".",
"+",
"@",
"#",
"#",
"#",
"#",
"#",
"#",
"#",
"#",
"#",
"#",
"#",
"#",
"#",
"#",
"#",
"#",
"#",
"#",
"#"};
