/* XPM */
static char * top_left_inactive_xpm[] = {
"10 22 20 1",
" 	c None",
".	c #B6B6B6",
"+	c #B7B7B7",
"@	c #CACACA",
"#	c #DBDBDB",
"$	c #E1E1E1",
"%	c #B5B5B5",
"&	c #CECECE",
"*	c #E4E4E4",
"=	c #E7E7E7",
"-	c #E3E3E3",
";	c #DADADA",
">	c #E0E0E0",
",	c #E6E6E6",
"'	c #E2E2E2",
")	c #C9C9C9",
"!	c #B4B4B4",
"~	c #B3B3B3",
"{	c #B2B2B2",
"]	c #B1B1B1",
"       .+.",
"     ..@#$",
"    %&*=*-",
"   +;=*>>>",
"  .#,'>>>>",
" +&,$>>>>>",
" .-->>>>>>",
"%)=>>>>>>>",
"+;*>>>>>>>",
"!>*>>>>>>>",
"~'->>>>>>>",
"{'->>>>>>>",
"{'->>>>>>>",
"{-'>>>>>>>",
"{'->>>>>>>",
"{''>>>>>>>",
"]'->>>>>>>",
"]$'>>>>>>>",
"]$'>>>>>>>",
"]-->>>>>>>",
"]-->>>>>>>",
"]'$>>>>>>>"};
