/* XPM */
static char * top_right_active_xpm[] = {
"10 22 19 1",
" 	c None",
".	c #B6B6B6",
"+	c #B5B5B5",
"@	c #E1E1E1",
"#	c #DBDBDB",
"$	c #CACACA",
"%	c #E3E3E3",
"&	c #E4E4E4",
"*	c #E7E7E7",
"=	c #CDCDCD",
"-	c #E0E0E0",
";	c #E2E2E2",
">	c #E6E6E6",
",	c #B7B7B7",
"'	c #C8C8C8",
")	c #DADADA",
"!	c #B3B3B3",
"~	c #B2B2B2",
"{	c #B1B1B1",
"..+       ",
"@#$.+     ",
"%&*&=.    ",
"---&*#+   ",
"----;*#.  ",
"-----@>=, ",
"------;%. ",
"-------*' ",
"-------&).",
"-------&-+",
"-------;;!",
"-------%%~",
"-------%%~",
"-------;%~",
"-------%%~",
"-------;;~",
"-------%;{",
"-------;;{",
"-------;%{",
"-------%;{",
"-------%;{",
"-------@%{"};
