<?xml version="1.0" encoding="UTF-8" standalone="no"?>
<!-- Created with Inkscape (http://www.inkscape.org/) -->

<svg
   xmlns:dc="http://purl.org/dc/elements/1.1/"
   xmlns:cc="http://creativecommons.org/ns#"
   xmlns:rdf="http://www.w3.org/1999/02/22-rdf-syntax-ns#"
   xmlns:svg="http://www.w3.org/2000/svg"
   xmlns="http://www.w3.org/2000/svg"
   xmlns:xlink="http://www.w3.org/1999/xlink"
   xmlns:sodipodi="http://sodipodi.sourceforge.net/DTD/sodipodi-0.dtd"
   xmlns:inkscape="http://www.inkscape.org/namespaces/inkscape"
   width="22"
   height="22"
   id="svg5239"
   version="1.1"
   inkscape:version="0.48.2 r9819"
   sodipodi:docname="start-here-22.svg">
  <defs
     id="defs5241">
    <linearGradient
       inkscape:collect="always"
       xlink:href="#linearGradient3737-8"
       id="linearGradient3506"
       gradientUnits="userSpaceOnUse"
       x1="48"
       y1="20.220806"
       x2="48"
       y2="138.66119" />
    <linearGradient
       id="linearGradient3737-8">
      <stop
         id="stop3739-3"
         style="stop-color:#ffffff;stop-opacity:1"
         offset="0" />
      <stop
         id="stop3741-8"
         style="stop-color:#ffffff;stop-opacity:0"
         offset="1" />
    </linearGradient>
    <clipPath
       id="clipPath3613-4">
      <rect
         width="84"
         height="84"
         rx="6"
         ry="6"
         x="6"
         y="6"
         id="rect3615-1"
         style="fill:#ffffff;fill-opacity:1;fill-rule:nonzero;stroke:none" />
    </clipPath>
    <filter
       x="-0.192"
       y="-0.192"
       width="1.3839999"
       height="1.3839999"
       color-interpolation-filters="sRGB"
       id="filter3794-4">
      <feGaussianBlur
         id="feGaussianBlur3796-8"
         stdDeviation="5.28" />
    </filter>
    <linearGradient
       y2="138.66119"
       x2="48"
       y1="20.220806"
       x1="48"
       gradientUnits="userSpaceOnUse"
       id="linearGradient5287"
       xlink:href="#linearGradient3737-8"
       inkscape:collect="always" />
  </defs>
  <sodipodi:namedview
     id="base"
     pagecolor="#ffffff"
     bordercolor="#666666"
     borderopacity="1.0"
     inkscape:pageopacity="0.0"
     inkscape:pageshadow="2"
     inkscape:zoom="2.8"
     inkscape:cx="-87.428572"
     inkscape:cy="-15.891618"
     inkscape:document-units="px"
     inkscape:current-layer="layer1"
     showgrid="false"
     fit-margin-top="0"
     fit-margin-left="0"
     fit-margin-right="0"
     fit-margin-bottom="0"
     inkscape:window-width="1366"
     inkscape:window-height="698"
     inkscape:window-x="0"
     inkscape:window-y="24"
     inkscape:window-maximized="1" />
  <metadata
     id="metadata5244">
    <rdf:RDF>
      <cc:Work
         rdf:about="">
        <dc:format>image/svg+xml</dc:format>
        <dc:type
           rdf:resource="http://purl.org/dc/dcmitype/StillImage" />
        <dc:title></dc:title>
      </cc:Work>
    </rdf:RDF>
  </metadata>
  <g
     inkscape:label="Layer 1"
     inkscape:groupmode="layer"
     id="layer1"
     transform="translate(-354.9709,-696.4463)">
    <path
       inkscape:connector-curvature="0"
       d="m 369.21794,705.45688 -0.6654,2.78519 -4.59333,0 0.66458,-2.78519 4.59415,0 0,0 z m 4.91043,0 0,-1.30288 -2.51375,0 0.98373,-4.24334 -2.10916,0 -0.98373,4.24334 -4.5921,0 1.01043,-4.24334 -2.16667,0 -0.98187,4.24334 -2.91853,0 0,1.30288 2.6577,0 -0.66334,2.78519 -2.8906,0 0,1.26231 2.57289,0 -1.04062,4.48241 2.13792,0 1.01083,-4.48241 4.62352,0 -1.04123,4.48241 2.13791,0 1.03918,-4.48241 2.86082,0 0,-1.26231 -2.57125,0 0.66541,-2.78519 2.77251,0 0,0"
       style="fill:#f5f5f5;fill-opacity:1;fill-rule:nonzero;stroke:none"
       id="path3056" />
  </g>
</svg>
